<?xml version="1.0" encoding="UTF-8"?>
<svg xmlns="http://www.w3.org/2000/svg" viewBox="0 0 559.71 78.55">
  <defs>
    <style>
      .cls-1 {
        fill: #93f;
      }

      .cls-2 {
        fill: #666;
      }
    </style>
  </defs>
  <g id="Layer_1" data-name="Layer 1">
    <g>
      <path class="cls-1" d="m17.07,40.11h-8.21v34.56H0V0h8.85v33.28h8L40.86,0h10.24l-26.35,35.52,29.66,39.15h-11.2l-26.14-34.56Z"/>
      <path class="cls-1" d="m136.44,0h17.28v44.17h5.87l21.02-22.83h10.03l-23.58,25.28,19.42,20.91h6.93v7.15h-10.99l-22.83-24.11h-5.87v24.11h-8.21V7.15h-9.07V0Z"/>
      <path class="cls-1" d="m199.82,48.01c0-8.6,2.24-15.42,6.72-20.43s10.88-7.52,19.2-7.52c4.48,0,8.34.73,11.58,2.19,3.24,1.46,5.92,3.43,8.05,5.92,2.13,2.49,3.71,5.44,4.75,8.85,1.03,3.41,1.55,7.08,1.55,10.99,0,4.27-.57,8.13-1.71,11.58-1.14,3.45-2.81,6.38-5.01,8.8-2.21,2.42-4.93,4.29-8.16,5.6-3.24,1.32-6.92,1.97-11.04,1.97-4.41,0-8.25-.73-11.52-2.19-3.27-1.46-5.97-3.43-8.11-5.92-2.13-2.49-3.72-5.44-4.75-8.85-1.03-3.41-1.55-7.08-1.55-10.99Zm8.85,0c0,2.49.3,4.98.9,7.47.6,2.49,1.58,4.73,2.92,6.72,1.35,1.99,3.1,3.59,5.26,4.8,2.16,1.21,4.8,1.81,7.92,1.81,5.67,0,9.94-1.76,12.81-5.28,2.87-3.52,4.31-8.69,4.31-15.52,0-2.56-.3-5.07-.91-7.52-.6-2.45-1.59-4.68-2.98-6.67-1.38-1.99-3.16-3.59-5.32-4.8-2.16-1.21-4.8-1.81-7.92-1.81-5.67,0-9.93,1.74-12.76,5.23-2.84,3.49-4.25,8.68-4.25,15.58Z"/>
      <path class="cls-1" d="m259.23,74.68v-7.15h14.4V28.48h-14.4v-7.15h19.95l1.71,6.93h.53c2.42-2.2,5.12-4.09,8.11-5.65,2.99-1.56,6.54-2.35,10.67-2.35,2.42,0,4.36.46,5.81,1.39,1.46.93,2.6,2.28,3.41,4.05.82,1.78,1.37,3.93,1.65,6.45.28,2.53.43,5.39.43,8.59l-7.47.11c0-4.51-.45-7.83-1.33-9.95-.89-2.12-2.51-3.18-4.85-3.18-2.21,0-4.2.32-5.97.96-1.78.64-3.33,1.42-4.64,2.34-1.32.92-2.44,1.84-3.36,2.77-.93.92-1.6,1.7-2.03,2.34v31.39h20.48v7.15h-43.1Z"/>
      <path class="cls-1" d="m320.65,48.01c0-8.6,2.24-15.42,6.72-20.43s10.88-7.52,19.2-7.52c4.48,0,8.34.73,11.58,2.19,3.24,1.46,5.92,3.43,8.05,5.92,2.13,2.49,3.71,5.44,4.75,8.85,1.03,3.41,1.55,7.08,1.55,10.99,0,4.27-.57,8.13-1.71,11.58-1.14,3.45-2.81,6.38-5.01,8.8-2.21,2.42-4.93,4.29-8.16,5.6-3.24,1.32-6.92,1.97-11.04,1.97-4.41,0-8.25-.73-11.52-2.19-3.27-1.46-5.97-3.43-8.11-5.92-2.13-2.49-3.72-5.44-4.75-8.85-1.03-3.41-1.55-7.08-1.55-10.99Zm8.85,0c0,2.49.3,4.98.9,7.47.6,2.49,1.58,4.73,2.92,6.72,1.35,1.99,3.1,3.59,5.26,4.8,2.16,1.21,4.8,1.81,7.92,1.81,5.67,0,9.94-1.76,12.81-5.28,2.87-3.52,4.31-8.69,4.31-15.52,0-2.56-.3-5.07-.91-7.52-.6-2.45-1.59-4.68-2.98-6.67-1.38-1.99-3.16-3.59-5.32-4.8-2.16-1.21-4.8-1.81-7.92-1.81-5.67,0-9.93,1.74-12.76,5.23-2.84,3.49-4.25,8.68-4.25,15.58Z"/>
      <path class="cls-2" d="m380.81,61.66l34.99-48.65h-33.28V0h50.46v13.02l-34.46,48.65h34.99v13.02h-52.7v-13.02Z"/>
      <path class="cls-2" d="m494,69.02c-.93.85-2.12,1.69-3.57,2.51-1.46.82-3.17,1.58-5.12,2.29-1.96.71-4.11,1.28-6.45,1.71-2.35.43-4.84.64-7.47.64-4.55,0-8.62-.64-12.21-1.92-3.59-1.28-6.63-3.15-9.12-5.6-2.49-2.45-4.39-5.4-5.71-8.85-1.32-3.45-1.97-7.38-1.97-11.79,0-4.69.75-8.8,2.24-12.32s3.54-6.45,6.13-8.8c2.6-2.35,5.64-4.11,9.12-5.28,3.48-1.17,7.25-1.76,11.31-1.76,2.7,0,5.49.36,8.38,1.07,2.88.71,5.53,1.94,7.95,3.68,2.42,1.74,4.39,4.07,5.92,6.99,1.53,2.92,2.29,6.61,2.29,11.09,0,3.06-.36,6.37-1.07,9.92h-38.41c.07,2.28.55,4.2,1.44,5.76.89,1.57,2.06,2.85,3.52,3.84,1.46,1,3.13,1.73,5.01,2.19,1.88.46,3.89.69,6.03.69,4.27,0,7.77-.5,10.51-1.49,2.74-1,4.96-2.2,6.67-3.63l4.59,9.07Zm-23.04-38.08c-1.85,0-3.59.26-5.23.76-1.64.51-3.11,1.25-4.43,2.23-1.32.98-2.4,2.19-3.25,3.64-.85,1.45-1.35,3.08-1.49,4.89h26.24c0-3.55-.98-6.36-2.93-8.42-1.96-2.07-4.93-3.1-8.91-3.1Z"/>
      <path class="cls-2" d="m502.32,21.34h18.67l1.6,7.04h.43c1.63-2.28,3.98-4.27,7.04-5.97,3.06-1.71,6.72-2.56,10.99-2.56,2.63,0,5.1.36,7.42,1.07,2.31.71,4.28,1.89,5.92,3.52,1.63,1.64,2.93,3.86,3.89,6.67.96,2.81,1.44,6.28,1.44,10.4v33.18h-13.87v-30.3c0-4.34-.98-7.47-2.93-9.39-1.96-1.92-4.43-2.88-7.41-2.88-2.63,0-5.03.77-7.2,2.29-2.17,1.53-3.65,3.43-4.43,5.71v34.56h-13.87v-41.61h-7.68v-11.73Z"/>
    </g>
  </g>
  <g id="Isolation_Mode" data-name="Isolation Mode">
    <g>
      <path class="cls-1" d="m79.72,35.98c1.67,1.52,3.91,2.41,6.17,2.45.33,0,.67,0,.97-.15.52-.24.82-.8,1.03-1.34.75-1.89.97-3.99.64-5.99-.09-.51-.23-1.05-.61-1.41-.82-.77-2.87-.65-3.71,0s-.96,1.95-1.94,2.55-2.18,0-3.06.46c-1.5.78-.43,2.58.51,3.44Z"/>
      <path class="cls-1" d="m86.07,49.23l-.71-.04c-.13-.08-.27-.19-.37-.33-.24-.33-.38-.78-.52-1.26l-.1-.34c-.81-2.54-2.41-4.37-4.38-5.03-1.12-.37-2.42-.39-3.88-.06-2.88.66-5.48,2.45-7.12,4.91l-.17.26c-.73,1.11-1.28,1.87-2.02,1.86-.46-.04-.84.33-.86.78-.02.46.33.84.78.86,1.71.11,2.73-1.47,3.48-2.6l.05-.07c-.28.73-.43,1.52-.41,2.32.36-.39.84-.69,1.4-.83,1.53-.39,3.09.54,3.48,2.08.39,1.53-.54,3.09-2.08,3.48-.13.03-.25.04-.38.06,1.46,1.13,3.4,1.6,5.33,1.12.18-.05.34-.12.52-.18-.57.22-1.15.41-1.76.5-3.51.54-7.3-1.33-9.02-4.44-.22-.4-.72-.54-1.12-.32s-.54.72-.32,1.12c1.81,3.27,5.54,5.38,9.27,5.38.48,0,.97-.04,1.44-.11,3.93-.6,7.39-3.71,8.48-7.52.41.12.83.12,1.23-.01.38-.13.61-.5.55-.89-.05-.39-.38-.69-.77-.71Zm-2.45.58c-.47,2.29-1.97,4.32-3.93,5.6,1.59-1.15,2.57-2.99,2.59-4.98-.32.26-.69.47-1.12.58-1.53.39-3.09-.54-3.48-2.08-.39-1.53.54-3.09,2.08-3.48.03,0,.06,0,.09-.01-1.31-1.01-3-1.48-4.72-1.22.44-.17.88-.32,1.34-.42,1.16-.27,2.17-.26,3,.01,2.08.69,3.02,3,3.33,3.97l.1.32c.17.54.35,1.16.73,1.7,0,0,0,.01,0,.02Zm-4.77,6.11s0,0,.01,0c0,0,0,0-.01,0Z"/>
      <path class="cls-1" d="m78.34,67.54c-.25,0-.5-.12-.66-.33-.27-.37-.19-.88.17-1.15,1.01-.75,2.08-1.45,3.18-2.07.4-.23.9-.09,1.12.31.23.4.09.9-.31,1.12-1.04.59-2.05,1.25-3.01,1.96-.15.11-.32.16-.49.16Z"/>
      <path class="cls-1" d="m81.46,62.67c-.11,0-.22-.02-.33-.07-.97-.42-1.98-.76-3.01-1.01-.44-.11-.71-.55-.61-1,.11-.44.55-.72,1-.61,1.12.27,2.22.64,3.27,1.1.42.18.61.67.43,1.08-.13.31-.44.5-.76.5Z"/>
      <path class="cls-1" d="m105.96,67.54c-.17,0-.34-.05-.49-.16-.96-.71-1.97-1.37-3.01-1.96-.4-.22-.53-.73-.31-1.12.22-.4.73-.54,1.12-.31,1.09.62,2.16,1.32,3.18,2.07.37.27.44.79.17,1.15-.16.22-.41.33-.66.33Z"/>
      <path class="cls-1" d="m102.84,62.67c-.32,0-.62-.19-.76-.5-.18-.42.01-.9.43-1.08,1.05-.46,2.15-.83,3.27-1.1.45-.11.89.16,1,.61.11.44-.16.89-.61,1-1.03.25-2.04.59-3.01,1.01-.11.05-.22.07-.33.07Z"/>
      <path class="cls-1" d="m104.58,35.98c-1.67,1.52-3.91,2.41-6.17,2.45-.33,0-.67,0-.97-.15-.52-.24-.82-.8-1.03-1.34-.75-1.89-.97-3.99-.64-5.99.09-.51.23-1.05.61-1.41.82-.77,2.87-.65,3.71,0s.96,1.95,1.94,2.55,2.18,0,3.06.46c1.5.78.43,2.58-.51,3.44Z"/>
      <path class="cls-1" d="m118.11,51.97c-.4-.22-.9-.08-1.12.32-1.72,3.11-5.51,4.97-9.02,4.44-.61-.09-1.19-.28-1.76-.5.17.06.34.13.52.18,1.93.49,3.87.01,5.33-1.12-.13-.01-.25-.02-.38-.06-1.53-.39-2.47-1.94-2.08-3.48.39-1.53,1.94-2.47,3.48-2.08.56.14,1.03.44,1.4.83.02-.81-.14-1.59-.41-2.32l.05.07c.75,1.13,1.76,2.72,3.48,2.6.46-.02.81-.41.78-.86-.02-.45-.4-.82-.86-.78-.73,0-1.29-.75-2.02-1.86l-.17-.26c-1.64-2.46-4.23-4.25-7.12-4.91-1.46-.33-2.77-.32-3.88.06-1.97.65-3.57,2.49-4.38,5.03l-.1.34c-.14.48-.28.93-.52,1.26-.1.14-.23.25-.37.33l-.71.04c-.4.02-.72.32-.77.71-.05.39.18.77.55.89.39.13.82.13,1.23.01,1.09,3.81,4.55,6.92,8.48,7.52.48.07.96.11,1.44.11,3.73,0,7.47-2.11,9.27-5.38.22-.4.08-.9-.32-1.12Zm-17.43-2.17s0-.01,0-.02c.38-.55.57-1.16.73-1.71l.1-.31c.31-.96,1.25-3.27,3.33-3.97.83-.27,1.83-.28,3-.01.46.1.9.25,1.34.42-1.72-.26-3.41.22-4.72,1.22.03,0,.06,0,.09.01,1.53.39,2.47,1.94,2.08,3.48-.39,1.53-1.94,2.47-3.48,2.08-.43-.11-.8-.31-1.12-.58.02,1.99,1,3.83,2.59,4.98-1.96-1.28-3.46-3.31-3.93-5.6Zm4.77,6.11s-.01,0-.02-.01c0,0,.01,0,.02.01Z"/>
      <path class="cls-1" d="m88.87,65.52c-.07,0-.14,0-.2,0-.82-.02-1.5-.17-2.07-.46-.8-.41-1.43-1.17-1.73-2.09-.29-.92-.22-1.91.2-2.7.21-.4.71-.56,1.11-.35.4.21.56.71.35,1.11-.21.41-.25.93-.09,1.44.16.5.49.91.9,1.12.34.17.79.27,1.37.28.58,0,1.65-.05,2.23-.7.5-.55.6-1.43.67-2.43.03-.45.42-.79.88-.76.45.03.8.42.77.87-.07,1.2.77,2.41,1.88,2.71,1.11.29,2.42-.4,2.74-1.46.14-.46.06-.93-.19-1.15-.34-.3-.37-.82-.07-1.16.3-.34.82-.37,1.16-.07.73.65,1,1.78.67,2.86-.57,1.89-2.79,3.1-4.74,2.58-.85-.22-1.59-.75-2.14-1.44-.12.2-.25.39-.41.57-.91,1.01-2.26,1.24-3.3,1.24Z"/>
      <path class="cls-1" d="m130.44,24.54c.77-4.06.31-8.17-.09-11.8-.14-1.25-1.05-2.29-2.28-2.58-4-.97-7.98.18-11,1.28-.61.22-1.21.45-1.82.69-2.25.87-4.37,1.68-6.49,1.9-.29.03-.56.11-.82.22-.02-.01-.04-.03-.06-.04-2.83-1.8-7.23-2.61-10.57-2.82-.3-.04-.64-.05-1.02-.05-.53-.02-1.02-.02-1.46,0-2.81.09-5.57.91-8.23,1.69-1.17.35-2.28.67-3.33.92-.61.14-1.14.47-1.53.9-1.4.53-2.63,1.05-3.57,1.53-1.88-.45-4.77-1.69-6.98-2.63-1.28-.55-2.49-1.07-3.46-1.42-3.02-1.11-7-2.25-11-1.28-1.23.3-2.14,1.33-2.28,2.58-.4,3.63-.86,7.74-.09,11.8.74,3.93,2.6,7.23,5.2,9.44-2.1,4.65-2.43,9.83-2.7,14.17-.58,9.31,4.29,19.2,12.11,24.61,5.86,4.05,12.32,4.31,18.57,4.57,1.18.05,2.36.1,3.53.17,1.61.1,3.23.18,4.87.18,5.74,0,11.56-.89,16.93-4.38.36-.24.75-.48,1.15-.73,3.47-2.19,8.73-5.5,10.59-11.3.69-2.15,2.4-8.78,2.62-11.64.33-4.17.54-8.51-.76-11.66l-.41-1c-.47-1.13-.93-2.25-1.41-3.37,2.92-2.19,5-5.71,5.8-9.93Zm-70.27-7.86c1.9.06,3.87.68,5.5,1.28.81.3,1.95.79,3.15,1.3,1.11.48,2.28.98,3.44,1.44-3.29,2.7-6.78,5.92-9.39,9.05-1.26-1.33-2.19-3.23-2.61-5.44-.46-2.43-.34-5.04-.09-7.63Zm61.08,33.36c-.16,2.01-1.58,7.87-2.35,10.27-1.2,3.73-5.01,6.13-8.08,8.06-.43.27-.84.53-1.23.78-5.69,3.7-12.35,3.62-18.13,3.24-1.22-.08-2.44-.13-3.67-.18-5.65-.23-10.98-.45-15.41-3.51-5.12-3.54-10.06-10.88-9.53-19.3.37-5.97.87-10.82,3.59-14.5,3.18-4.31,9.33-9.6,14.01-12.93,2.07-1.47,12.1-4.43,15.41-4.64.29,0,.59.02.89.03.05,0,.11,0,.16,0,2.8.18,6.16.88,7.75,1.89,9.83,6.25,12.48,12.7,15.83,20.86l.42,1.01c.86,2.09.51,6.52.33,8.9Zm3.3-26.61c-.41,2.2-1.35,4.1-2.6,5.43-1.88-3.41-4.28-6.73-7.82-9.93,1.12-.37,2.21-.78,3.29-1.2.57-.22,1.15-.44,1.72-.65,1.63-.6,3.6-1.22,5.5-1.27.25,2.6.37,5.2-.09,7.63Z"/>
    </g>
  </g>
</svg>